# xmcd
#
# Track frame offsets: 
#        183
#        23580
#        54525
#
# Disc length: 1123 seconds
#
# Revision: 1
# Processed by: cddbd v1.5.2PL0 Copyright (c) Steve Scherf et al.
# Submitted via: ExactAudioCopy v1.1
#
DISCID=1a046103
DTITLE=Joe Cocker - Let The Healing Begin [CDCLS 727]
DYEAR=1994
DGENRE=Soul
TTITLE0=Let The Healing Begin
TTITLE1=Summer In The City (City Club Mix)
TTITLE2=Summer In The City (Dub Club Mix)
EXTD=YEAR: 1994
EXTT0=
EXTT1=
EXTT2=
PLAYORDER=
